# xmcd CD database file generated by OrangeCD 5.2
#
# Track frame offsets:
#	150
#	44490
#	89491
#	111046
#	133918
#
# Disc length: 2051 seconds
#
# Revision: 1
# Processed by: cddbd v1.5.1PL0 Copyright (c) Steve Scherf et al.
# Submitted via: OrangeCD 5.2
#
DISCID=43080105
DTITLE=Ayumi Hamasaki - LOVEppears Disc 2
DYEAR=1999
DGENRE=Rock
TTITLE0=Ayu's Euro Mega Mix"Y and Co. Mix"
TTITLE1=Ayu's House Mega Mix"N.S House Mix"
TTITLE2=A Song for XX "Millenium Mix" from 1st album
TTITLE3=Power Snow "Acoustic Orchastra Version"
TTITLE4=Friend II "Make My Mad Mix" from Ayu-mi-x
EXTD=
EXTT0=
EXTT1=
EXTT2=
EXTT3=
EXTT4=
PLAYORDER=
